<?xml version="1.0" encoding="UTF-8"?>
<svg width="192px" height="60px" viewBox="0 0 192 60" version="1.1" xmlns="http://www.w3.org/2000/svg" xmlns:xlink="http://www.w3.org/1999/xlink">
    <title>pictures/appstore/apple</title>
    <defs>
        <polygon id="path-1" points="0 60 192 60 192 0 0 0"></polygon>
    </defs>
    <g id="Page-1" stroke="none" stroke-width="1" fill="none" fill-rule="evenodd">
        <g id="landing" transform="translate(-664.000000, -6104.000000)">
            <g id="Block6" transform="translate(0.000000, 5597.000000)">
                <g id="Group-11" transform="translate(664.000000, 507.000000)">
                    <g id="pictures/appstore/apple">
                        <g id="Group">
                            <rect id="Rectangle" stroke="#5A5A66" fill="#17171B" x="0.5" y="0.5" width="191" height="59" rx="5"></rect>
                            <path d="M40.5,29.6997 C40.5,25.0497 44.4,22.7997 44.55,22.6497 C42.3,19.4997 39,19.0497 37.8,18.8997 C34.95,18.5997 32.1,20.5497 30.75,20.5497 C29.25,20.5497 27,18.8997 24.6,18.8997 C21.45,18.8997 18.6,20.6997 16.95,23.5497 C13.65,29.2497 16.05,37.6497 19.2,42.2997 C20.85,44.5497 22.65,47.1012 25.05,46.9497 C27.45,46.7997 28.35,45.4497 31.2,45.4497 C34.05,45.4497 34.8,46.9497 37.35,46.9497 C39.9,46.9497 41.55,44.6997 43.05,42.4497 C44.85,39.8997 45.6,37.3512 45.6,37.1997 C45.45,37.0497 40.5,35.2497 40.5,29.6997" id="Fill-3" fill="#FFFFFF"></path>
                            <path d="M35.84985,15.90015 C37.04985,14.25015 37.94985,12.15015 37.79985,9.90015 C35.99985,10.05015 33.59985,11.10015 32.39985,12.75015 C31.19985,14.10015 30.14985,16.35015 30.44985,18.45015 C32.39985,18.60015 34.49985,17.40015 35.84985,15.90015" id="Fill-5" fill="#FFFFFF"></path>
                            <path d="M69,38.5503 L67.35,33.4503 C67.2,33.0003 66.9,31.6488 66.3,29.8503 C66.15,30.6003 65.85,31.9503 65.4,33.4503 L63.75,38.5503 L69,38.5503 Z M74.7,46.6488 L71.4,46.6488 L69.6,40.9503 L63.3,40.9503 L61.65,46.6488 L58.5,46.6488 L64.8,27.3003 L68.7,27.3003 L74.7,46.6488 Z" id="Fill-7" fill="#FFFFFF"></path>
                            <path d="M87.59985,39.6006 C87.59985,38.2506 87.29985,37.0506 86.69985,36.3006 C86.09985,35.3991 85.19985,34.9491 83.99985,34.9491 C83.24985,34.9491 82.49985,35.2506 81.89985,35.6991 C81.29985,36.1491 80.84985,36.8991 80.69985,37.6491 C80.54985,38.1006 80.54985,38.3991 80.54985,38.5506 L80.54985,40.9491 C80.54985,42.0006 80.84985,42.7506 81.44985,43.5006 C82.04985,44.2506 82.94985,44.5506 83.84985,44.5506 C85.04985,44.5506 85.94985,44.1006 86.54985,43.1991 C87.29985,42.3006 87.59985,41.1006 87.59985,39.6006 M90.74985,39.6006 C90.74985,42.0006 90.14985,43.8006 88.79985,45.3006 C87.59985,46.5006 86.24985,47.1006 84.44985,47.1006 C82.64985,47.1006 81.29985,46.5006 80.54985,45.1491 L80.54985,52.5006 L77.39985,52.5006 L77.39985,37.5006 C77.39985,36.0006 77.39985,34.5006 77.24985,32.8506 L79.94985,32.8506 L80.09985,35.1006 C81.14985,33.4491 82.64985,32.5506 84.74985,32.5506 C86.39985,32.5506 87.74985,33.1491 88.79985,34.5006 C90.14985,35.6991 90.74985,37.3506 90.74985,39.6006" id="Fill-9" fill="#FFFFFF"></path>
                            <path d="M103.6494,39.6006 C103.6494,38.2506 103.3509,37.0506 102.7494,36.3006 C102.1494,35.3991 101.2494,34.9491 100.0509,34.9491 C99.3009,34.9491 98.5509,35.2506 97.9494,35.6991 C97.3494,36.1491 96.8994,36.8991 96.7494,37.6491 C96.5994,38.1006 96.5994,38.3991 96.5994,38.5506 L96.5994,40.9491 C96.5994,42.0006 96.8994,42.7506 97.4994,43.5006 C98.1009,44.2506 98.9994,44.5506 99.8994,44.5506 C101.1009,44.5506 101.9994,44.1006 102.6009,43.1991 C103.3509,42.3006 103.6494,41.1006 103.6494,39.6006 M106.8009,39.6006 C106.8009,42.0006 106.1994,43.8006 104.8509,45.3006 C103.6494,46.5006 102.3009,47.1006 100.4994,47.1006 C98.6994,47.1006 97.3494,46.5006 96.5994,45.1491 L96.5994,52.5006 L93.4494,52.5006 L93.4494,37.5006 C93.4494,36.0006 93.4494,34.5006 93.3009,32.8506 L95.9994,32.8506 L96.1494,35.1006 C97.1994,33.4491 98.6994,32.5506 100.8009,32.5506 C102.4494,32.5506 103.8009,33.1491 104.8509,34.5006 C106.1994,35.6991 106.8009,37.3506 106.8009,39.6006" id="Fill-11" fill="#FFFFFF"></path>
                            <path d="M124.8003,41.25 C124.8003,42.9 124.2003,44.25 123.1488,45.3 C121.9503,46.5 120.1488,46.95 117.8988,46.95 C115.8003,46.95 114.1488,46.5 112.9503,45.75 L113.7003,43.2 C115.0503,43.95 116.5503,44.4 118.2003,44.4 C119.3988,44.4 120.3003,44.1 120.8988,43.65 C121.5003,43.05 121.8003,42.45 121.8003,41.55 C121.8003,40.8 121.5003,40.05 121.0503,39.6 C120.4503,39 119.5503,38.55 118.3503,38.1 C114.8988,36.9 113.2503,34.95 113.2503,32.55 C113.2503,30.9 113.8503,29.7 115.0503,28.65 C116.2503,27.6 117.7503,27.15 119.8503,27.15 C121.6488,27.15 123.0003,27.45 124.2003,28.05 L123.4503,30.6 C122.3988,30 121.2003,29.7 119.7003,29.7 C118.6488,29.7 117.7503,30 117.1488,30.45 C116.7003,30.9 116.3988,31.5 116.3988,32.25 C116.3988,33 116.7003,33.6 117.3003,34.2 C117.7503,34.65 118.8003,35.1 120.1488,35.7 C121.8003,36.3 123.0003,37.2 123.8988,38.1 C124.3503,38.85 124.8003,39.9 124.8003,41.25" id="Fill-13" fill="#FFFFFF"></path>
                            <path d="M135,35.1006 L131.55,35.1006 L131.55,41.8506 C131.55,43.5006 132.15,44.3991 133.35,44.3991 C133.95,44.3991 134.4,44.3991 134.7,44.2506 L134.85,46.6491 C134.25,46.9491 133.5,46.9491 132.45,46.9491 C131.25,46.9491 130.2,46.6491 129.6,45.8991 C128.85,45.1491 128.55,43.9491 128.55,42.1491 L128.55,35.1006 L126.45,35.1006 L126.45,32.6991 L128.55,32.6991 L128.55,30.1506 L131.55,29.2506 L131.55,32.6991 L135,32.6991 L135,35.1006 Z" id="Fill-15" fill="#FFFFFF"></path>
                            <path d="M147.1494,39.75 C147.1494,38.4 146.8509,37.35 146.2494,36.45 C145.6494,35.4 144.6009,34.8 143.3994,34.8 C142.1994,34.8 141.1494,35.4 140.5509,36.45 C139.9494,37.35 139.6494,38.55 139.6494,39.75 C139.6494,41.1 139.9494,42.15 140.5509,43.05 C141.1494,44.1 142.1994,44.7 143.3994,44.7 C144.6009,44.7 145.4994,44.1 146.2494,43.05 C146.8509,42.15 147.1494,40.95 147.1494,39.75 M150.4494,39.6 C150.4494,41.7 149.8509,43.5 148.6494,44.85 C147.3009,46.2 145.6494,46.95 143.5509,46.95 C141.4494,46.95 139.8009,46.2 138.6009,44.85 C137.3994,43.5 136.8009,41.85 136.8009,39.75 C136.8009,37.65 137.3994,35.85 138.7494,34.5 C139.9494,33.15 141.7494,32.4 143.8509,32.4 C145.9494,32.4 147.6009,33.15 148.8009,34.5 C149.8509,35.85 150.4494,37.5 150.4494,39.6" id="Fill-17" fill="#FFFFFF"></path>
                            <path d="M160.5,35.3994 C160.2,35.3994 159.9,35.2494 159.45,35.2494 C158.4,35.2494 157.5,35.6994 156.9,36.4494 C156.45,37.1994 156.15,38.1009 156.15,39.1494 L156.15,46.4994 L153,46.4994 L153,36.8994 C153,35.2494 153,33.8994 152.85,32.5509 L155.55,32.5509 L155.7,35.2494 L155.85,35.2494 C156.15,34.3509 156.75,33.6009 157.35,32.9994 C158.1,32.5509 158.85,32.2494 159.6,32.2494 L160.35,32.2494 L160.35,35.3994 L160.5,35.3994 Z" id="Fill-19" fill="#FFFFFF"></path>
                            <path d="M171.4497,38.25 C171.4497,37.35 171.2997,36.6 170.8512,35.85 C170.2497,34.95 169.4997,34.5 168.4497,34.5 C167.3997,34.5 166.6497,34.95 166.0497,35.7 C165.6012,36.3 165.2997,37.2 165.1497,38.1 L171.4497,38.1 L171.4497,38.25 Z M174.2997,39 C174.2997,39.6 174.2997,40.05 174.1497,40.35 L164.8512,40.35 C164.8512,41.7 165.2997,42.75 166.1997,43.5 C166.9497,44.1 167.9997,44.55 169.1997,44.55 C170.5497,44.55 171.8997,44.4 172.9497,43.95 L173.3997,46.05 C172.0497,46.65 170.5497,46.95 168.7497,46.95 C166.6497,46.95 164.8512,46.35 163.6497,45 C162.4497,43.8 161.8512,42 161.8512,39.9 C161.8512,37.8 162.4497,36 163.4997,34.65 C164.6997,33.15 166.3512,32.4 168.4497,32.4 C170.3997,32.4 172.0497,33.15 172.9497,34.65 C173.9997,35.85 174.2997,37.35 174.2997,39 L174.2997,39 Z" id="Fill-21" fill="#FFFFFF"></path>
                            <path d="M66.4497,15.4497 C66.4497,14.3997 66.1497,13.4997 65.5497,12.8997 C64.9497,12.2997 64.0497,11.9997 62.9997,11.9997 C62.5497,11.9997 62.0997,11.9997 61.7997,12.1497 L61.7997,19.1997 L62.8497,19.1997 C64.0497,19.1997 64.9497,18.8997 65.5497,18.2997 C66.1497,17.6997 66.4497,16.6497 66.4497,15.4497 M68.0997,15.4497 C68.0997,17.0997 67.6497,18.4497 66.5997,19.3497 C65.6997,20.0997 64.3497,20.5497 62.5497,20.5497 C61.6497,20.5497 60.8997,20.5497 60.2997,20.3997 L60.2997,11.0997 C61.0497,10.9497 61.9497,10.9497 62.9997,10.9497 C64.6497,10.9497 65.8497,11.2497 66.7497,11.9997 C67.4997,12.7497 68.0997,13.9497 68.0997,15.4497" id="Fill-23" fill="#FFFFFF"></path>
                            <path d="M75,16.9497 C75,16.3497 74.85,15.7497 74.55,15.2997 C74.25,14.6997 73.8,14.5497 73.2,14.5497 C72.6,14.5497 72.15,14.8497 71.85,15.2997 C71.55,15.7497 71.4,16.3497 71.4,16.9497 C71.4,17.5497 71.55,18.1497 71.85,18.5997 C72.15,19.1997 72.6,19.3497 73.2,19.3497 C73.8,19.3497 74.25,19.0497 74.55,18.4497 C74.85,18.1497 75,17.5497 75,16.9497 M76.5,16.9497 C76.5,17.9997 76.2,18.8997 75.6,19.4997 C75,20.2497 74.1,20.5497 73.05,20.5497 C72,20.5497 71.25,20.2497 70.65,19.4997 C70.05,18.8997 69.75,17.9997 69.75,16.9497 C69.75,15.8997 70.05,14.9997 70.65,14.3997 C71.25,13.6497 72.15,13.3497 73.2,13.3497 C74.25,13.3497 75,13.6497 75.6,14.3997 C76.2,14.9997 76.5,15.8997 76.5,16.9497" id="Fill-25" fill="#FFFFFF"></path>
                            <path d="M88.0503,13.5 L85.9503,20.4 L84.6003,20.4 L83.7003,17.4 C83.4003,16.65 83.2503,15.9 83.1003,15.15 C82.9503,15.9 82.8003,16.65 82.5003,17.4 L81.6003,20.4 L80.2503,20.4 L78.0003,13.5 L79.5003,13.5 L80.2503,16.8 C80.4003,17.55 80.5503,18.3 80.7003,19.05 C80.8503,18.45 81.0003,17.7 81.3003,16.8 L82.2003,13.5 L83.4003,13.5 L84.3003,16.65 C84.6003,17.4 84.7503,18.15 84.9003,18.9 C85.0503,18.15 85.2003,17.4 85.3503,16.65 L86.2503,13.5 L88.0503,13.5 Z" id="Fill-27" fill="#FFFFFF"></path>
                            <path d="M95.84985,20.40015 L94.34985,20.40015 L94.34985,16.50015 C94.34985,15.30015 93.89985,14.70015 92.99985,14.70015 C92.54985,14.70015 92.24985,14.85015 91.94985,15.15015 C91.64985,15.45015 91.49985,15.90015 91.49985,16.35015 L91.49985,20.40015 L89.99985,20.40015 L89.99985,15.45015 L89.99985,13.50015 L91.34985,13.50015 L91.34985,14.55015 C91.49985,14.25015 91.79985,13.95015 92.09985,13.65015 C92.54985,13.35015 92.99985,13.20015 93.44985,13.20015 C94.04985,13.20015 94.64985,13.35015 95.09985,13.80015 C95.69985,14.25015 95.84985,15.00015 95.84985,16.05015 L95.84985,20.40015 Z" id="Fill-29" fill="#FFFFFF"></path>
                            <mask id="mask-2" fill="white">
                                <use xlink:href="#path-1"></use>
                            </mask>
                            <g id="Clip-32"></g>
                            <polygon id="Fill-31" fill="#FFFFFF" mask="url(#mask-2)" points="98.55 20.4 100.05 20.4 100.05 10.35 98.55 10.35"></polygon>
                            <path d="M107.5503,16.9497 C107.5503,16.3497 107.3988,15.7497 107.1003,15.2997 C106.8003,14.6997 106.3503,14.5497 105.7503,14.5497 C105.1488,14.5497 104.7003,14.8497 104.3988,15.2997 C104.1003,15.7497 103.9503,16.3497 103.9503,16.9497 C103.9503,17.5497 104.1003,18.1497 104.3988,18.5997 C104.7003,19.1997 105.1488,19.3497 105.7503,19.3497 C106.3503,19.3497 106.8003,19.0497 107.1003,18.4497 C107.3988,18.1497 107.5503,17.5497 107.5503,16.9497 M109.0503,16.9497 C109.0503,17.9997 108.7503,18.8997 108.1488,19.4997 C107.5503,20.2497 106.6488,20.5497 105.6003,20.5497 C104.5503,20.5497 103.8003,20.2497 103.2003,19.4997 C102.6003,18.8997 102.3003,17.9997 102.3003,16.9497 C102.3003,15.8997 102.6003,14.9997 103.2003,14.3997 C103.8003,13.7997 104.7003,13.3497 105.7503,13.3497 C106.8003,13.3497 107.5503,13.6497 108.1488,14.3997 C108.7503,14.9997 109.0503,15.8997 109.0503,16.9497" id="Fill-33" fill="#FFFFFF" mask="url(#mask-2)"></path>
                            <path d="M114.8994,18 L114.8994,16.95 C113.2494,16.95 112.3509,17.4 112.3509,18.3 C112.3509,18.6 112.4994,18.9 112.6494,19.05 C112.8009,19.2 113.1009,19.35 113.3994,19.35 C113.6994,19.35 113.9994,19.2 114.3009,19.05 C114.6009,18.9 114.7494,18.6 114.8994,18.3 L114.8994,18 Z M116.3994,20.4 L115.0509,20.4 L114.8994,19.65 C114.4494,20.25 113.6994,20.55 112.9494,20.55 C112.3509,20.55 111.7494,20.4 111.4494,19.95 C111.1494,19.5 110.8509,19.05 110.8509,18.6 C110.8509,17.7 111.1494,17.1 111.8994,16.65 C112.6494,16.2 113.5509,16.05 114.8994,16.05 L114.8994,15.9 C114.8994,15 114.4494,14.55 113.5509,14.55 C112.8009,14.55 112.3509,14.7 111.7494,15 L111.4494,13.95 C112.0509,13.5 112.8009,13.35 113.8509,13.35 C115.6494,13.35 116.5509,14.25 116.5509,16.2 L116.5509,18.75 C116.3994,19.5 116.3994,19.95 116.3994,20.4 L116.3994,20.4 Z" id="Fill-34" fill="#FFFFFF" mask="url(#mask-2)"></path>
                            <path d="M123.6006,17.5503 L123.6006,16.3503 L123.6006,15.9003 C123.4491,15.6003 123.3006,15.3003 123.0006,15.0003 C122.6991,14.7003 122.3991,14.7003 121.9491,14.7003 C121.3506,14.7003 120.8991,15.0003 120.6006,15.4503 C120.3006,15.9003 120.1491,16.5003 120.1491,17.2503 C120.1491,18.0003 120.3006,18.4503 120.6006,18.9003 C120.8991,19.3503 121.3506,19.6503 121.9491,19.6503 C122.3991,19.6503 122.8506,19.5003 123.1491,19.0503 C123.4491,18.4503 123.6006,18.0003 123.6006,17.5503 L123.6006,17.5503 Z M125.1006,20.4003 L123.7506,20.4003 L123.7506,19.3503 C123.3006,20.2503 122.5506,20.5503 121.5006,20.5503 C120.6006,20.5503 120.0006,20.2503 119.3991,19.6503 C118.8006,19.0503 118.6491,18.1503 118.6491,17.1003 C118.6491,16.0503 118.9491,15.1503 119.5506,14.4003 C120.1491,13.8003 120.8991,13.5003 121.6491,13.5003 C122.5506,13.5003 123.1491,13.8003 123.6006,14.4003 L123.6006,10.5003 L125.1006,10.5003 L125.1006,18.6003 L125.1006,20.4003 Z" id="Fill-35" fill="#FFFFFF" mask="url(#mask-2)"></path>
                            <path d="M136.5,16.9497 C136.5,16.3497 136.35,15.7497 136.05,15.2997 C135.75,14.6997 135.3,14.5497 134.7,14.5497 C134.1,14.5497 133.65,14.8497 133.35,15.2997 C133.05,15.7497 132.9,16.3497 132.9,16.9497 C132.9,17.5497 133.05,18.1497 133.35,18.5997 C133.65,19.1997 134.1,19.3497 134.7,19.3497 C135.3,19.3497 135.75,19.0497 136.05,18.4497 C136.35,18.1497 136.5,17.5497 136.5,16.9497 M138.15,16.9497 C138.15,17.9997 137.85,18.8997 137.25,19.4997 C136.65,20.2497 135.75,20.5497 134.7,20.5497 C133.65,20.5497 132.9,20.2497 132.3,19.4997 C131.7,18.8997 131.4,17.9997 131.4,16.9497 C131.4,15.8997 131.7,14.9997 132.3,14.3997 C132.9,13.6497 133.8,13.3497 134.85,13.3497 C135.9,13.3497 136.65,13.6497 137.25,14.3997 C137.85,14.9997 138.15,15.8997 138.15,16.9497" id="Fill-36" fill="#FFFFFF" mask="url(#mask-2)"></path>
                            <path d="M146.3994,20.40015 L144.8994,20.40015 L144.8994,16.50015 C144.8994,15.30015 144.4494,14.70015 143.5509,14.70015 C143.1009,14.70015 142.8009,14.85015 142.4994,15.15015 C142.1994,15.45015 142.0509,15.90015 142.0509,16.35015 L142.0509,20.40015 L140.5509,20.40015 L140.5509,15.45015 L140.5509,13.50015 L141.8994,13.50015 L141.8994,14.55015 C142.0509,14.25015 142.3509,13.95015 142.6494,13.65015 C143.1009,13.35015 143.5509,13.20015 143.9994,13.20015 C144.6009,13.20015 145.1994,13.35015 145.6494,13.80015 C146.2494,14.25015 146.3994,15.00015 146.3994,16.05015 L146.3994,20.40015 Z" id="Fill-37" fill="#FFFFFF" mask="url(#mask-2)"></path>
                            <path d="M156.6006,14.6997 L154.9491,14.6997 L154.9491,17.9997 C154.9491,18.8997 155.2506,19.1997 155.8506,19.1997 L156.6006,19.1997 L156.6006,20.3997 C156.3006,20.5497 155.8506,20.5497 155.3991,20.5497 C154.8006,20.5497 154.3506,20.3997 154.0506,19.9497 C153.7506,19.6497 153.6006,18.8997 153.6006,18.1497 L153.6006,14.6997 L152.5506,14.6997 L152.5506,13.4997 L153.6006,13.4997 L153.6006,12.2997 L155.1006,11.8497 L155.1006,13.4997 L156.7506,13.4997 L156.7506,14.6997 L156.6006,14.6997 Z" id="Fill-38" fill="#FFFFFF" mask="url(#mask-2)"></path>
                            <path d="M164.6997,20.40015 L163.1997,20.40015 L163.1997,16.50015 C163.1997,15.30015 162.7497,14.70015 161.8512,14.70015 C161.1012,14.70015 160.6497,15.00015 160.3512,15.75015 L160.3512,16.35015 L160.3512,20.40015 L158.8512,20.40015 L158.8512,10.35015 L160.3512,10.35015 L160.3512,14.55015 C160.7997,13.80015 161.5497,13.35015 162.4497,13.35015 C163.0497,13.35015 163.6497,13.50015 163.9497,13.95015 C164.3997,14.40015 164.6997,15.30015 164.6997,16.20015 L164.6997,20.40015 Z" id="Fill-39" fill="#FFFFFF" mask="url(#mask-2)"></path>
                            <path d="M171.6006,16.1997 C171.6006,15.7497 171.4491,15.2997 171.3006,14.9997 C171.0006,14.5497 170.6991,14.3997 170.1006,14.3997 C169.6491,14.3997 169.1991,14.5497 168.8991,14.9997 C168.6006,15.2997 168.4491,15.7497 168.4491,16.1997 L171.6006,16.1997 Z M172.9491,16.6497 L172.9491,17.3997 L168.4491,17.3997 C168.4491,18.1497 168.7506,18.5997 169.0506,18.8997 C169.5006,19.1997 169.9491,19.3497 170.5506,19.3497 C171.3006,19.3497 171.8991,19.1997 172.3506,19.0497 L172.6491,20.0997 C172.0506,20.3997 171.3006,20.5497 170.3991,20.5497 C169.3506,20.5497 168.4491,20.2497 167.8506,19.6497 C167.2506,19.0497 166.9491,18.1497 166.9491,17.0997 C166.9491,16.0497 167.2506,15.1497 167.8506,14.5497 C168.4491,13.7997 169.1991,13.4997 170.2506,13.4997 C171.3006,13.4997 172.0506,13.7997 172.5006,14.5497 C172.8006,14.9997 172.9491,15.7497 172.9491,16.6497 L172.9491,16.6497 Z" id="Fill-40" fill="#FFFFFF" mask="url(#mask-2)"></path>
                        </g>
                    </g>
                </g>
            </g>
        </g>
    </g>
</svg>