<?xml version="1.0" encoding="UTF-8"?>
<svg width="192px" height="60px" viewBox="0 0 192 60" version="1.1" xmlns="http://www.w3.org/2000/svg" xmlns:xlink="http://www.w3.org/1999/xlink">
    <title>pictures/appstore/gplay</title>
    <defs>
        <polygon id="path-1" points="0 60 192 60 192 0 0 0"></polygon>
        <linearGradient x1="60.9903275%" y1="4.94615078%" x2="26.5360307%" y2="71.8787395%" id="linearGradient-3">
            <stop stop-color="#00A0FF" offset="0%"></stop>
            <stop stop-color="#00A1FF" offset="1%"></stop>
            <stop stop-color="#00BEFF" offset="26%"></stop>
            <stop stop-color="#00D2FF" offset="51%"></stop>
            <stop stop-color="#00DFFF" offset="76%"></stop>
            <stop stop-color="#00E3FF" offset="100%"></stop>
        </linearGradient>
        <linearGradient x1="107.684729%" y1="50%" x2="-130.640394%" y2="50%" id="linearGradient-4">
            <stop stop-color="#FFE000" offset="0%"></stop>
            <stop stop-color="#FFBD00" offset="41%"></stop>
            <stop stop-color="#FFA500" offset="78%"></stop>
            <stop stop-color="#FF9C00" offset="100%"></stop>
        </linearGradient>
        <linearGradient x1="86.2709832%" y1="30.8725537%" x2="-50.1798561%" y2="136.108936%" id="linearGradient-5">
            <stop stop-color="#FF3A44" offset="0%"></stop>
            <stop stop-color="#C31162" offset="100%"></stop>
        </linearGradient>
        <linearGradient x1="-18.82494%" y1="-11.9103989%" x2="42.0863309%" y2="35.0790955%" id="linearGradient-6">
            <stop stop-color="#32A071" offset="0%"></stop>
            <stop stop-color="#2DA771" offset="7%"></stop>
            <stop stop-color="#15CF74" offset="48%"></stop>
            <stop stop-color="#06E775" offset="80%"></stop>
            <stop stop-color="#00F076" offset="100%"></stop>
        </linearGradient>
    </defs>
    <g id="Page-1" stroke="none" stroke-width="1" fill="none" fill-rule="evenodd">
        <g id="landing" transform="translate(-880.000000, -6104.000000)">
            <g id="Block6" transform="translate(0.000000, 5597.000000)">
                <g id="Group-13" transform="translate(880.000000, 507.000000)">
                    <g id="pictures/appstore/gplay">
                        <g id="Group-2" stroke-width="1" fill-rule="evenodd">
                            <rect id="Rectangle" stroke="#5A5A66" fill="#17171B" x="0.5" y="0.5" width="191" height="59" rx="5"></rect>
                            <g id="Group-66">
                                <path d="M147.8994,34.9497 L147.8994,34.9497 C147.8994,33.4497 146.6994,32.3997 145.0509,32.3997 L142.0509,32.3997 L142.0509,37.6497 L145.1994,37.6497 C146.6994,37.6497 147.8994,36.4497 147.8994,34.9497 L147.8994,34.9497 Z M124.9494,40.0497 L124.9494,40.0497 L130.4994,37.6497 C129.8994,36.6012 128.9994,36.2997 128.2494,36.2997 C125.9994,36.4497 124.6494,38.8512 124.9494,40.0497 L124.9494,40.0497 Z M113.9994,41.3997 L113.9994,41.3997 C113.9994,41.2497 113.9994,41.1012 114.1494,40.9497 L114.1494,40.3512 L114.1494,39.7497 L114.1494,39.6012 C114.1494,39.4497 113.9994,39.1497 113.9994,38.9997 C113.5509,37.4997 112.1994,36.4497 110.8509,36.4497 C109.0509,36.4497 107.5509,38.2497 107.5509,40.1997 C107.5509,42.2997 109.0509,43.9497 110.9994,43.9497 C112.1994,44.1012 113.3994,43.0497 113.9994,41.3997 L113.9994,41.3997 Z M100.6494,40.3512 L100.6494,40.3512 C100.6494,38.5497 99.4494,36.6012 97.1994,36.6012 C94.9494,36.6012 93.7494,38.5497 93.7494,40.3512 C93.7494,42.1497 94.9494,44.1012 97.1994,44.1012 C99.4494,44.1012 100.6494,42.1497 100.6494,40.3512 L100.6494,40.3512 Z M87.1494,40.3512 L87.1494,40.3512 C87.1494,38.5497 85.9494,36.6012 83.6994,36.6012 C81.4494,36.6012 80.2494,38.5497 80.2494,40.3512 C80.2494,42.1497 81.4494,44.1012 83.6994,44.1012 C85.8009,44.1012 87.1494,42.1497 87.1494,40.3512 L87.1494,40.3512 Z M163.9494,41.5497 L163.9494,41.5497 C163.3509,41.1012 162.4494,40.9497 161.5509,40.9497 C159.7494,40.9497 158.6994,41.8512 158.6994,42.8997 C158.6994,43.9497 159.7494,44.5497 160.8009,44.5497 C162.3009,44.5497 163.9494,43.3512 163.9494,41.5497 L163.9494,41.5497 Z M118.1994,46.1997 L118.1994,46.1997 L118.1994,27.5997 L120.8994,27.5997 L120.8994,46.1997 L118.1994,46.1997 Z M152.1009,46.4997 L152.1009,46.4997 L152.1009,29.8497 L154.6494,29.8497 L154.6494,46.4997 L152.1009,46.4997 Z M139.4994,46.4997 L139.4994,46.4997 L139.4994,29.8497 L144.8994,29.8497 C148.0509,29.8497 150.6009,32.1012 150.6009,34.7997 C150.6009,37.4997 148.3509,39.7497 145.4994,39.7497 L142.1994,39.7497 L142.1994,46.3512 L139.4994,46.3512 L139.4994,46.4997 Z M123.8994,44.6997 L123.8994,44.6997 C121.6494,42.2997 121.6494,38.2497 123.8994,35.6997 C126.1494,33.2997 129.8994,33.2997 131.9994,35.6997 C132.7494,36.4497 133.1994,37.4997 133.6494,38.5497 L125.3994,41.9997 C125.8509,43.0497 126.8994,43.9497 128.3994,43.9497 C129.7494,43.9497 130.6494,43.4997 131.5509,42.1497 L133.8009,43.6497 C133.4994,43.9497 133.1994,44.2497 133.0509,44.5497 C130.4994,47.1012 126.1494,47.1012 123.8994,44.6997 L123.8994,44.6997 Z M60.4494,43.6497 L60.4494,43.6497 C56.6994,39.8997 56.8494,33.7497 60.5994,29.8497 C62.5509,27.8997 64.9494,26.9997 67.4994,26.9997 C69.8994,26.9997 72.3009,27.8997 74.0994,29.6997 L72.3009,31.6497 C69.5994,28.9497 65.2494,29.0997 62.6994,31.7997 C59.9994,34.6497 59.9994,38.9997 62.6994,41.8512 C65.3994,44.6997 69.8994,44.8512 72.5994,41.9997 C73.4994,41.1012 73.8009,39.8997 73.9494,38.6997 L67.6494,38.6997 L67.6494,35.9997 L76.4994,35.9997 C76.6494,36.6012 76.6494,37.3512 76.6494,38.1012 C76.6494,40.3512 75.7494,42.6012 74.2494,44.1012 C72.5994,45.7497 70.1994,46.6497 67.8009,46.6497 C65.0994,46.4997 62.3994,45.6012 60.4494,43.6497 L60.4494,43.6497 Z M90.8994,40.3512 L90.8994,40.3512 C90.8994,37.3512 93.1494,34.0497 97.1994,34.0497 C101.1009,34.0497 103.4994,37.3512 103.4994,40.3512 C103.4994,43.3512 101.2494,46.6497 97.1994,46.6497 C93.3009,46.6497 90.8994,43.3512 90.8994,40.3512 L90.8994,40.3512 Z M77.3994,40.3512 L77.3994,40.3512 C77.3994,37.3512 79.6494,34.0497 83.6994,34.0497 C87.5994,34.0497 89.9994,37.3512 89.9994,40.3512 C89.9994,43.3512 87.7494,46.6497 83.6994,46.6497 C79.6494,46.6497 77.3994,43.3512 77.3994,40.3512 L77.3994,40.3512 Z M157.3509,45.7497 L157.3509,45.7497 C156.6009,44.9997 156.3009,43.9497 156.3009,42.8997 C156.3009,41.9997 156.6009,41.1012 157.1994,40.4997 C158.2494,39.4497 159.7494,38.9997 161.3994,38.9997 C162.4494,38.9997 163.3509,39.1497 164.1009,39.6012 C164.1009,37.7997 162.6009,37.0497 161.3994,37.0497 C160.3509,37.0497 159.3009,37.6497 158.8509,38.6997 L156.6009,37.7997 C157.0509,36.7497 158.2494,34.7997 161.2494,34.7997 C162.7494,34.7997 164.2494,35.2497 165.1494,36.2997 C166.0509,37.3512 166.3509,38.5497 166.3509,40.1997 L166.3509,46.4997 L163.8009,46.4997 L163.8009,45.4497 C163.4994,45.8997 162.8994,46.1997 162.4494,46.4997 C161.8509,46.7997 161.1009,46.9497 160.3509,46.9497 C159.4494,46.7997 158.1009,46.4997 157.3509,45.7497 L157.3509,45.7497 Z M169.4994,51.4497 L169.4994,51.4497 L172.0509,45.4497 L167.5509,35.1012 L170.1009,35.1012 L173.2494,42.4497 L176.3994,35.1012 L178.9494,35.1012 L172.0509,51.4497 L169.4994,51.4497 Z M106.6494,50.8512 C105.8994,50.2497 105.3009,49.1997 104.9994,48.6012 L107.3994,47.5497 C107.5509,47.8512 107.8509,48.2997 108.1494,48.7497 C108.7494,49.3512 109.6494,49.9497 110.5509,49.9497 C111.4494,49.9497 112.4994,49.4997 113.1009,48.7497 C113.5509,47.9997 113.8509,47.2497 113.8509,46.1997 L113.8509,45.2997 C112.0509,47.5497 108.3009,47.2497 106.1994,44.8512 C103.9494,42.4497 103.9494,38.3997 106.1994,35.9997 C108.4494,33.7497 111.7494,33.4497 113.6994,35.5497 L113.6994,34.4997 L116.2494,34.4997 L116.2494,45.7497 C116.2494,48.6012 115.1994,50.2497 113.8509,51.2997 C112.9494,52.0497 111.6009,52.3512 110.3994,52.3512 C109.0509,52.1997 107.6994,51.7497 106.6494,50.8512 L106.6494,50.8512 Z" id="Fill-15" fill="#FFFFFF"></path>
                                <polygon id="Fill-17" fill="#FFFFFF" points="171.4497 48.4497 171.4497 48.4497 171.2997 48.4497 171.2997 48.2997 171.4497 48.2997 171.2997 48.2997 171.2997 48.4497"></polygon>
                                <path d="M171.4497,48.4503 L171.4497,48.4503 C171.4497,48.3003 171.4497,48.3003 171.4497,48.4503 C171.4497,48.3003 171.4497,48.3003 171.4497,48.4503 L171.4497,48.4503 Z" id="Fill-19" fill="#FFFFFF"></path>
                                <polygon id="Fill-21" fill="#FFFFFF" points="171.4497 48.4497 171.4497 48.4497 171.4497 48.2997"></polygon>
                                <polygon id="Fill-25" fill="#FFFFFF" points="171.4497 48.3003 171.4497 48.3003 171.4497 48.4503"></polygon>
                                <polygon id="Fill-27" fill="#FFFFFF" points="171.4497 48.4497 171.4497 48.4497 171.4497 48.2997"></polygon>
                                <path d="M171.4497,48.4497 L171.4497,48.4497 C171.4497,48.2997 171.4497,48.2997 171.4497,48.4497 M171.4497,48.4497 L171.4497,48.4497 C171.4497,48.2997 171.4497,48.2997 171.4497,48.4497" id="Fill-29" fill="#FFFFFF"></path>
                                <path d="M171.6006,48.4497 L171.6006,48.4497 C171.6006,48.2997 171.6006,48.2997 171.6006,48.4497 L171.6006,48.4497 Z M171.6006,48.4497 L171.6006,48.4497 C171.6006,48.2997 171.6006,48.2997 171.6006,48.4497 C171.6006,48.2997 171.6006,48.2997 171.6006,48.4497 C171.6006,48.2997 171.6006,48.2997 171.6006,48.4497 L171.6006,48.4497 Z" id="Fill-31" fill="#FFFFFF"></path>
                                <polygon id="Fill-33" fill="#FFFFFF" points="171.6006 48.3003 171.6006 48.3003 171.6006 48.4503"></polygon>
                                <polygon id="Fill-35" fill="#FFFFFF" points="171.6006 48.4497 171.6006 48.4497 171.6006 48.2997"></polygon>
                                <path d="M171.6006,48.3003 L171.6006,48.3003 C171.6006,48.4503 171.6006,48.4503 171.6006,48.3003 C171.6006,48.4503 171.6006,48.4503 171.6006,48.3003 M171.6006,48.4503 L171.6006,48.4503 C171.6006,48.3003 171.6006,48.3003 171.6006,48.4503 C171.6006,48.3003 171.6006,48.3003 171.6006,48.4503" id="Fill-37" fill="#FFFFFF"></path>
                                <path d="M171.6006,48.4497 L171.6006,48.4497 C171.6006,48.2997 171.6006,48.2997 171.6006,48.4497 C171.6006,48.2997 171.6006,48.2997 171.6006,48.4497 C171.6006,48.2997 171.6006,48.2997 171.6006,48.4497 C171.6006,48.2997 171.6006,48.2997 171.6006,48.4497" id="Fill-39" fill="#FFFFFF"></path>
                                <path d="M171.75,48.3003 L171.75,48.3003 C171.75,48.4503 171.75,48.4503 171.75,48.3003 C171.75,48.4503 171.6,48.4503 171.75,48.3003 C171.6,48.3003 171.75,48.3003 171.75,48.3003 M171.75,48.4503 L171.75,48.4503 C171.75,48.3003 171.75,48.3003 171.75,48.4503 C171.6,48.3003 171.6,48.3003 171.75,48.4503 C171.6,48.4503 171.6,48.4503 171.75,48.4503" id="Fill-41" fill="#FFFFFF"></path>
                                <polygon id="Fill-43" fill="#FFFFFF" points="171.75 48.4497 171.75 48.2997 171.75 48.4497 171.75 48.2997 171.75 48.4497 171.75 48.2997"></polygon>
                                <path d="M171.75,48.4497 C171.75,48.2997 171.75,48.2997 171.75,48.4497 C171.75,48.2997 171.75,48.2997 171.75,48.4497 C171.75,48.2997 171.75,48.2997 171.75,48.4497 C171.75,48.2997 171.75,48.2997 171.75,48.4497 C171.75,48.2997 171.75,48.2997 171.75,48.4497 C171.75,48.2997 171.75,48.2997 171.75,48.4497 C171.75,48.2997 171.75,48.2997 171.75,48.4497 C171.75,48.2997 171.75,48.2997 171.75,48.4497" id="Fill-47" fill="#FFFFFF"></path>
                                <polygon id="Fill-49" fill="#FFFFFF" points="171.8994 48.3003 171.7494 48.3003 171.8994 48.3003 171.8994 48.4503"></polygon>
                                <polygon id="Fill-51" fill="#FFFFFF" points="171.8994 48.4497 171.8994 48.4497 171.8994 48.2997"></polygon>
                                <path d="M171.8994,48.4503 L171.8994,48.4503 C171.8994,48.3003 171.8994,48.3003 171.8994,48.4503 C171.8994,48.3003 171.8994,48.3003 171.8994,48.4503 L171.8994,48.4503 Z" id="Fill-53" fill="#FFFFFF"></path>
                                <path d="M58.34985,15.15015 C58.34985,12.45015 60.29985,10.80015 62.69985,10.80015 C64.34985,10.80015 65.39985,11.55015 66.14985,12.60015 L64.94985,13.35015 C64.49985,12.75015 63.74985,12.30015 62.69985,12.30015 C61.04985,12.30015 59.84985,13.50015 59.84985,15.30015 C59.84985,17.10015 61.04985,18.30015 62.69985,18.30015 C63.59985,18.30015 64.34985,17.85015 64.64985,17.55015 L64.64985,16.20015 L62.24985,16.20015 L62.24985,14.85015 L66.29985,14.85015 L66.29985,18.00015 C65.54985,18.90015 64.34985,19.50015 62.84985,19.50015 C60.29985,19.50015 58.34985,17.70015 58.34985,15.15015" id="Fill-55" fill="#FFFFFF"></path>
                                <polygon id="Fill-57" fill="#FFFFFF" points="68.09985 19.34985 68.09985 10.94985 73.79985 10.94985 73.79985 12.29985 69.44985 12.29985 69.44985 14.39985 73.64985 14.39985 73.64985 15.74985 69.44985 15.74985 69.44985 18.14985 73.79985 18.14985 73.79985 19.49985"></polygon>
                                <polygon id="Fill-59" fill="#FFFFFF" points="78 19.34985 78 12.29985 75.45 12.29985 75.45 10.94985 82.05 10.94985 82.05 12.29985 79.5 12.29985 79.5 19.34985"></polygon>
                                <mask id="mask-2" fill="white">
                                    <use xlink:href="#path-1"></use>
                                </mask>
                                <g id="Clip-62"></g>
                                <polygon id="Fill-61" fill="#FFFFFF" mask="url(#mask-2)" points="87.15 19.35 88.65 19.35 88.65 10.95 87.15 10.95"></polygon>
                                <polygon id="Fill-63" fill="#FFFFFF" mask="url(#mask-2)" points="92.6997 19.34985 92.6997 12.29985 90.1497 12.29985 90.1497 10.94985 96.7497 10.94985 96.7497 12.29985 94.1997 12.29985 94.1997 19.34985"></polygon>
                                <path d="M108.6006,15.15015 C108.6006,13.35015 107.5506,12.15015 105.7506,12.15015 C104.1006,12.15015 102.8991,13.50015 102.8991,15.15015 C102.8991,16.95015 103.9491,18.15015 105.7506,18.15015 C107.5506,18.15015 108.6006,16.80015 108.6006,15.15015 M101.5506,15.15015 C101.5506,12.60015 103.3506,10.80015 105.8991,10.80015 C108.4491,10.80015 110.2506,12.60015 110.2506,15.15015 C110.2506,17.70015 108.4491,19.50015 105.8991,19.50015 C103.3506,19.50015 101.5506,17.55015 101.5506,15.15015" id="Fill-64" fill="#FFFFFF" mask="url(#mask-2)"></path>
                                <polygon id="Fill-65" fill="#FFFFFF" mask="url(#mask-2)" points="117.75 19.34985 113.4 13.34985 113.4 19.34985 111.9 19.34985 111.9 10.94985 113.4 10.94985 117.75 16.79985 117.75 10.94985 119.25 10.94985 119.25 19.34985"></polygon>
                            </g>
                        </g>
                        <path d="M14.5093028,11.1114713 C14.0311577,11.7025546 13.7952627,12.4531298 13.8493028,13.2114713 L13.8493028,46.3914713 C13.7982637,47.1570402 14.051643,47.911787 14.5543028,48.4914713 L14.6593028,48.6114713 L33.1993028,30.0264713 L33.1993028,29.5764713 L14.6143028,11.0064713 L14.5093028,11.1114713 Z" id="Path" fill="url(#linearGradient-3)" fill-rule="nonzero"></path>
                        <path d="M39.3493028,36.2214713 L33.1993028,30.0264713 L33.1993028,29.5764713 L39.3493028,23.3814713 L39.4843028,23.4714713 L46.8493028,27.6414713 C48.9493028,28.8264713 48.9493028,30.7764713 46.8493028,31.9764713 L39.5143028,36.1464713 L39.3493028,36.2214713 Z" id="Path" fill="url(#linearGradient-4)" fill-rule="nonzero"></path>
                        <path d="M39.5293028,36.1314713 L33.1993028,29.8014713 L14.5093028,48.4914713 C15.3838516,49.2699275 16.6891627,49.3140685 17.6143028,48.5964713 L39.5293028,36.1314713" id="Path" fill="url(#linearGradient-5)" fill-rule="nonzero"></path>
                        <path d="M39.5293028,23.4714713 L17.6143028,11.0214713 C16.6947496,10.2935536 15.3851494,10.331513 14.5093028,11.1114713 L33.1993028,29.8014713 L39.5293028,23.4714713 Z" id="Path" fill="url(#linearGradient-6)" fill-rule="nonzero"></path>
                        <path d="M39.3493028,35.9964713 L17.6143028,48.3714713 C16.7265341,49.0414902 15.5020714,49.0414902 14.6143028,48.3714713 L14.6143028,48.3714713 L14.5093028,48.4764713 L14.5093028,48.4764713 L14.6143028,48.5964713 L14.6143028,48.5964713 C15.5020714,49.2664902 16.7265341,49.2664902 17.6143028,48.5964713 L39.5293028,36.1314713 L39.3493028,35.9964713 Z" id="Path" fill="#000000" fill-rule="nonzero" opacity="0.2"></path>
                        <path d="M14.5093028,48.2814713 C14.0274939,47.6865112 13.7913757,46.9298596 13.8493028,46.1664713 L13.8493028,46.3914713 C13.7982637,47.1570402 14.051643,47.911787 14.5543028,48.4914713 L14.6593028,48.3864713 L14.5093028,48.2814713 Z" id="Path" fill="#000000" fill-rule="nonzero" opacity="0.12"></path>
                        <path d="M46.8493028,31.7514713 L39.3493028,35.9964713 L39.4843028,36.1314713 L46.8493028,31.9614713 C47.7348959,31.5870087 48.3448933,30.758333 48.4393028,29.8014713 L48.4393028,29.8014713 C48.249115,30.6671217 47.6589453,31.3909148 46.8493028,31.7514713 L46.8493028,31.7514713 Z" id="Path" fill="#000000" fill-rule="nonzero" opacity="0.12"></path>
                        <path d="M17.6143028,11.2314713 L46.8493028,27.8514713 C47.6589453,28.2120278 48.249115,28.9358209 48.4393028,29.8014713 L48.4393028,29.8014713 C48.3448933,28.8446096 47.7348959,28.0159339 46.8493028,27.6414713 L17.6143028,11.0214713 C15.5293028,9.8214713 13.8493028,10.8114713 13.8493028,13.2114713 L13.8493028,13.4364713 C13.8493028,11.0364713 15.5293028,10.0464713 17.6143028,11.2314713 Z" id="Path" fill="#FFFFFF" fill-rule="nonzero" opacity="0.25"></path>
                    </g>
                </g>
            </g>
        </g>
    </g>
</svg>