<?xml version="1.0" encoding="UTF-8"?>
<svg width="228px" height="37px" viewBox="0 0 228 37" version="1.1" xmlns="http://www.w3.org/2000/svg" xmlns:xlink="http://www.w3.org/1999/xlink">
    <title>Group 2</title>
    <g id="Page-1" stroke="none" stroke-width="1" fill="none" fill-rule="evenodd">
        <g id="landing" transform="translate(-204.000000, -34.000000)" fill="#FFFFFF" fill-rule="nonzero">
            <g id="Header">
                <g id="Group-2" transform="translate(204.000000, 34.000000)">
                    <g id="logo_white">
                        <path d="M62.886,26.264 C64.294,26.264 65.4893333,26.0513333 66.472,25.626 C67.4546667,25.2006667 68.1916667,24.625 68.683,23.899 C69.1743333,23.173 69.42,22.37 69.42,21.49 C69.42,20.4633333 69.1523333,19.6493333 68.617,19.048 C68.0816667,18.4466667 67.44,18.0066667 66.692,17.728 C65.944,17.4493333 64.9833333,17.1706667 63.81,16.892 C62.6806667,16.6426667 61.841,16.3896667 61.291,16.133 C60.741,15.8763333 60.466,15.484 60.466,14.956 C60.466,14.428 60.7043333,14.0026667 61.181,13.68 C61.6576667,13.3573333 62.3946667,13.196 63.392,13.196 C64.8146667,13.196 66.2373333,13.5993333 67.66,14.406 L67.66,14.406 L68.76,11.7 C68.056,11.26 67.2346667,10.9226667 66.296,10.688 C65.3573333,10.4533333 64.3966667,10.336 63.414,10.336 C62.006,10.336 60.8143333,10.5486667 59.839,10.974 C58.8636667,11.3993333 58.134,11.975 57.65,12.701 C57.166,13.427 56.924,14.2373333 56.924,15.132 C56.924,16.1586667 57.1916667,16.98 57.727,17.596 C58.2623333,18.212 58.904,18.6593333 59.652,18.938 C60.4,19.2166667 61.3606667,19.4953333 62.534,19.774 C63.2966667,19.95 63.9016667,20.1113333 64.349,20.258 C64.7963333,20.4046667 65.163,20.599 65.449,20.841 C65.735,21.083 65.878,21.3873333 65.878,21.754 C65.878,22.2526667 65.636,22.6523333 65.152,22.953 C64.668,23.2536667 63.92,23.404 62.908,23.404 C61.9986667,23.404 61.0893333,23.2573333 60.18,22.964 C59.2706667,22.6706667 58.486,22.282 57.826,21.798 L57.826,21.798 L56.616,24.482 C57.3053333,25.01 58.2183333,25.439 59.355,25.769 C60.4916667,26.099 61.6686667,26.264 62.886,26.264 Z M77.614,26.176 C78.3473333,26.176 79.0293333,26.0403333 79.66,25.769 C80.2906667,25.4976667 80.8333333,25.1053333 81.288,24.592 L81.288,24.592 L81.288,26 L84.544,26 L84.544,14.164 L81.112,14.164 L81.112,20.016 C81.112,21.072 80.8626667,21.8676667 80.364,22.403 C79.8653333,22.9383333 79.2053333,23.206 78.384,23.206 C76.7853333,23.206 75.986,22.2526667 75.986,20.346 L75.986,20.346 L75.986,14.164 L72.554,14.164 L72.554,20.852 C72.554,22.612 73.0086667,23.9393333 73.918,24.834 C74.8273333,25.7286667 76.0593333,26.176 77.614,26.176 Z M94.454,26.176 C95.7006667,26.176 96.7896667,25.912 97.721,25.384 C98.6523333,24.856 99.3306667,24.1226667 99.756,23.184 L99.756,23.184 L97.094,21.732 C96.4926667,22.8173333 95.6053333,23.36 94.432,23.36 C93.5373333,23.36 92.7966667,23.0666667 92.21,22.48 C91.6233333,21.8933333 91.33,21.094 91.33,20.082 C91.33,19.07 91.6233333,18.2706667 92.21,17.684 C92.7966667,17.0973333 93.5373333,16.804 94.432,16.804 C95.5906667,16.804 96.478,17.3466667 97.094,18.432 L97.094,18.432 L99.756,17.002 C99.3306667,16.034 98.6523333,15.2896667 97.721,14.769 C96.7896667,14.2483333 95.7006667,13.988 94.454,13.988 C93.1926667,13.988 92.0596667,14.2483333 91.055,14.769 C90.0503333,15.2896667 89.2656667,16.012 88.701,16.936 C88.1363333,17.86 87.854,18.9086667 87.854,20.082 C87.854,21.2553333 88.1363333,22.304 88.701,23.228 C89.2656667,24.152 90.0503333,24.8743333 91.055,25.395 C92.0596667,25.9156667 93.1926667,26.176 94.454,26.176 Z M108.302,26.176 C109.548667,26.176 110.637667,25.912 111.569,25.384 C112.500333,24.856 113.178667,24.1226667 113.604,23.184 L113.604,23.184 L110.942,21.732 C110.340667,22.8173333 109.453333,23.36 108.28,23.36 C107.385333,23.36 106.644667,23.0666667 106.058,22.48 C105.471333,21.8933333 105.178,21.094 105.178,20.082 C105.178,19.07 105.471333,18.2706667 106.058,17.684 C106.644667,17.0973333 107.385333,16.804 108.28,16.804 C109.438667,16.804 110.326,17.3466667 110.942,18.432 L110.942,18.432 L113.604,17.002 C113.178667,16.034 112.500333,15.2896667 111.569,14.769 C110.637667,14.2483333 109.548667,13.988 108.302,13.988 C107.040667,13.988 105.907667,14.2483333 104.903,14.769 C103.898333,15.2896667 103.113667,16.012 102.549,16.936 C101.984333,17.86 101.702,18.9086667 101.702,20.082 C101.702,21.2553333 101.984333,22.304 102.549,23.228 C103.113667,24.152 103.898333,24.8743333 104.903,25.395 C105.907667,25.9156667 107.040667,26.176 108.302,26.176 Z M122.304,26.176 C124.445333,26.176 126.073333,25.538 127.188,24.262 L127.188,24.262 L125.362,22.282 C124.951333,22.678 124.507667,22.9676667 124.031,23.151 C123.554333,23.3343333 123.008,23.426 122.392,23.426 C121.497333,23.426 120.749333,23.2133333 120.148,22.788 C119.546667,22.3626667 119.165333,21.7833333 119.004,21.05 L119.004,21.05 L127.958,21.05 C128.002,20.478 128.024,20.17 128.024,20.126 C128.024,18.894 127.756333,17.8123333 127.221,16.881 C126.685667,15.9496667 125.948667,15.2346667 125.01,14.736 C124.071333,14.2373333 123.022667,13.988 121.864,13.988 C120.676,13.988 119.601667,14.2483333 118.641,14.769 C117.680333,15.2896667 116.925,16.0156667 116.375,16.947 C115.825,17.8783333 115.55,18.9233333 115.55,20.082 C115.55,21.2553333 115.828667,22.304 116.386,23.228 C116.943333,24.152 117.735333,24.8743333 118.762,25.395 C119.788667,25.9156667 120.969333,26.176 122.304,26.176 Z M124.79,19.048 L118.96,19.048 C119.077333,18.2853333 119.4,17.684 119.928,17.244 C120.456,16.804 121.108667,16.584 121.886,16.584 C122.648667,16.584 123.294,16.8076667 123.822,17.255 C124.35,17.7023333 124.672667,18.3 124.79,19.048 L124.79,19.048 Z M135.294,26.176 C136.452667,26.176 137.453667,26.0183333 138.297,25.703 C139.140333,25.3876667 139.782,24.944 140.222,24.372 C140.662,23.8 140.882,23.1473333 140.882,22.414 C140.882,21.5486667 140.654667,20.874 140.2,20.39 C139.745333,19.906 139.21,19.5723333 138.594,19.389 C137.978,19.2056667 137.186,19.0333333 136.218,18.872 C135.352667,18.74 134.722,18.6006667 134.326,18.454 C133.93,18.3073333 133.732,18.0506667 133.732,17.684 C133.732,17.3613333 133.915333,17.0973333 134.282,16.892 C134.648667,16.6866667 135.198667,16.584 135.932,16.584 C137.164,16.584 138.300667,16.8773333 139.342,17.464 L139.342,17.464 L140.486,15.022 C139.943333,14.6993333 139.257667,14.4463333 138.429,14.263 C137.600333,14.0796667 136.768,13.988 135.932,13.988 C134.802667,13.988 133.823667,14.1493333 132.995,14.472 C132.166333,14.7946667 131.535667,15.2456667 131.103,15.825 C130.670333,16.4043333 130.454,17.068 130.454,17.816 C130.454,18.7106667 130.685,19.4 131.147,19.884 C131.609,20.368 132.155333,20.7053333 132.786,20.896 C133.416667,21.0866667 134.216,21.2553333 135.184,21.402 C136.005333,21.5046667 136.614,21.6293333 137.01,21.776 C137.406,21.9226667 137.604,22.1646667 137.604,22.502 C137.604,23.2206667 136.878,23.58 135.426,23.58 C134.707333,23.58 133.974,23.4736667 133.226,23.261 C132.478,23.0483333 131.84,22.7733333 131.312,22.436 L131.312,22.436 L130.168,24.9 C130.725333,25.2666667 131.473333,25.571 132.412,25.813 C133.350667,26.055 134.311333,26.176 135.294,26.176 Z M147.976,26.176 C149.134667,26.176 150.135667,26.0183333 150.979,25.703 C151.822333,25.3876667 152.464,24.944 152.904,24.372 C153.344,23.8 153.564,23.1473333 153.564,22.414 C153.564,21.5486667 153.336667,20.874 152.882,20.39 C152.427333,19.906 151.892,19.5723333 151.276,19.389 C150.66,19.2056667 149.868,19.0333333 148.9,18.872 C148.034667,18.74 147.404,18.6006667 147.008,18.454 C146.612,18.3073333 146.414,18.0506667 146.414,17.684 C146.414,17.3613333 146.597333,17.0973333 146.964,16.892 C147.330667,16.6866667 147.880667,16.584 148.614,16.584 C149.846,16.584 150.982667,16.8773333 152.024,17.464 L152.024,17.464 L153.168,15.022 C152.625333,14.6993333 151.939667,14.4463333 151.111,14.263 C150.282333,14.0796667 149.45,13.988 148.614,13.988 C147.484667,13.988 146.505667,14.1493333 145.677,14.472 C144.848333,14.7946667 144.217667,15.2456667 143.785,15.825 C143.352333,16.4043333 143.136,17.068 143.136,17.816 C143.136,18.7106667 143.367,19.4 143.829,19.884 C144.291,20.368 144.837333,20.7053333 145.468,20.896 C146.098667,21.0866667 146.898,21.2553333 147.866,21.402 C148.687333,21.5046667 149.296,21.6293333 149.692,21.776 C150.088,21.9226667 150.286,22.1646667 150.286,22.502 C150.286,23.2206667 149.56,23.58 148.108,23.58 C147.389333,23.58 146.656,23.4736667 145.908,23.261 C145.16,23.0483333 144.522,22.7733333 143.994,22.436 L143.994,22.436 L142.85,24.9 C143.407333,25.2666667 144.155333,25.571 145.094,25.813 C146.032667,26.055 146.993333,26.176 147.976,26.176 Z M169.204,26.264 C170.612,26.264 171.807333,26.0513333 172.79,25.626 C173.772667,25.2006667 174.509667,24.625 175.001,23.899 C175.492333,23.173 175.738,22.37 175.738,21.49 C175.738,20.4633333 175.470333,19.6493333 174.935,19.048 C174.399667,18.4466667 173.758,18.0066667 173.01,17.728 C172.262,17.4493333 171.301333,17.1706667 170.128,16.892 C168.998667,16.6426667 168.159,16.3896667 167.609,16.133 C167.059,15.8763333 166.784,15.484 166.784,14.956 C166.784,14.428 167.022333,14.0026667 167.499,13.68 C167.975667,13.3573333 168.712667,13.196 169.71,13.196 C171.132667,13.196 172.555333,13.5993333 173.978,14.406 L173.978,14.406 L175.078,11.7 C174.374,11.26 173.552667,10.9226667 172.614,10.688 C171.675333,10.4533333 170.714667,10.336 169.732,10.336 C168.324,10.336 167.132333,10.5486667 166.157,10.974 C165.181667,11.3993333 164.452,11.975 163.968,12.701 C163.484,13.427 163.242,14.2373333 163.242,15.132 C163.242,16.1586667 163.509667,16.98 164.045,17.596 C164.580333,18.212 165.222,18.6593333 165.97,18.938 C166.718,19.2166667 167.678667,19.4953333 168.852,19.774 C169.614667,19.95 170.219667,20.1113333 170.667,20.258 C171.114333,20.4046667 171.481,20.599 171.767,20.841 C172.053,21.083 172.196,21.3873333 172.196,21.754 C172.196,22.2526667 171.954,22.6523333 171.47,22.953 C170.986,23.2536667 170.238,23.404 169.226,23.404 C168.316667,23.404 167.407333,23.2573333 166.498,22.964 C165.588667,22.6706667 164.804,22.282 164.144,21.798 L164.144,21.798 L162.934,24.482 C163.623333,25.01 164.536333,25.439 165.673,25.769 C166.809667,26.099 167.986667,26.264 169.204,26.264 Z M183.778,26.176 C184.320667,26.176 184.837667,26.1136667 185.329,25.989 C185.820333,25.8643333 186.234667,25.6773333 186.572,25.428 L186.572,25.428 L185.648,23.008 C185.266667,23.3013333 184.804667,23.448 184.262,23.448 C183.792667,23.448 183.429667,23.3123333 183.173,23.041 C182.916333,22.7696667 182.788,22.3846667 182.788,21.886 L182.788,21.886 L182.788,17.068 L185.736,17.068 L185.736,14.428 L182.788,14.428 L182.788,11.546 L179.356,11.546 L179.356,14.428 L177.53,14.428 L177.53,17.068 L179.356,17.068 L179.356,21.93 C179.356,23.3233333 179.741,24.3793333 180.511,25.098 C181.281,25.8166667 182.37,26.176 183.778,26.176 Z M194.766,26.176 C196.012667,26.176 197.127333,25.9156667 198.11,25.395 C199.092667,24.8743333 199.862667,24.152 200.42,23.228 C200.977333,22.304 201.256,21.2553333 201.256,20.082 C201.256,18.9086667 200.977333,17.86 200.42,16.936 C199.862667,16.012 199.092667,15.2896667 198.11,14.769 C197.127333,14.2483333 196.012667,13.988 194.766,13.988 C193.519333,13.988 192.401,14.2483333 191.411,14.769 C190.421,15.2896667 189.647333,16.012 189.09,16.936 C188.532667,17.86 188.254,18.9086667 188.254,20.082 C188.254,21.2553333 188.532667,22.304 189.09,23.228 C189.647333,24.152 190.421,24.8743333 191.411,25.395 C192.401,25.9156667 193.519333,26.176 194.766,26.176 Z M194.766,23.36 C193.886,23.36 193.16,23.063 192.588,22.469 C192.016,21.875 191.73,21.0793333 191.73,20.082 C191.73,19.0846667 192.016,18.289 192.588,17.695 C193.16,17.101 193.886,16.804 194.766,16.804 C195.646,16.804 196.368333,17.101 196.933,17.695 C197.497667,18.289 197.78,19.0846667 197.78,20.082 C197.78,21.0793333 197.497667,21.875 196.933,22.469 C196.368333,23.063 195.646,23.36 194.766,23.36 Z M207.976,26 L207.976,20.412 C207.976,19.312 208.254667,18.487 208.812,17.937 C209.369333,17.387 210.139333,17.112 211.122,17.112 C211.254,17.112 211.510667,17.1266667 211.892,17.156 L211.892,17.156 L211.892,13.988 C210.982667,13.988 210.179667,14.1346667 209.483,14.428 C208.786333,14.7213333 208.232667,15.154 207.822,15.726 L207.822,15.726 L207.822,14.164 L204.544,14.164 L204.544,26 L207.976,26 Z M216.852,30.444 C217.981333,30.444 218.945667,30.1653333 219.745,29.608 C220.544333,29.0506667 221.215333,28.09 221.758,26.726 L221.758,26.726 L227.104,14.164 L223.804,14.164 L220.46,22.194 L217.138,14.164 L213.596,14.164 L218.722,26.088 L218.678,26.198 C218.443333,26.726 218.179333,27.1036667 217.886,27.331 C217.592667,27.5583333 217.211333,27.672 216.742,27.672 C216.404667,27.672 216.063667,27.606 215.719,27.474 C215.374333,27.342 215.07,27.1586667 214.806,26.924 L214.806,26.924 L213.552,29.366 C213.933333,29.7033333 214.424667,29.9673333 215.026,30.158 C215.627333,30.3486667 216.236,30.444 216.852,30.444 Z M17.9935643,0 C22.7953334,0 27.299912,1.94344911 30.646182,5.34617944 C30.8925171,5.59667082 30.892663,6.00073904 30.6579195,6.25168999 L30.6111553,6.29687407 L28.3685237,8.25544216 C28.1235985,8.46934386 27.7610993,8.45850128 27.5286829,8.23032199 C24.9764575,5.72462474 21.5945389,4.30232558 17.9935643,4.30232558 C10.3670562,4.30232558 4.18454984,10.6588409 4.18454984,18.5 C4.18454984,26.3411591 10.3670562,32.6976744 17.9935643,32.6976744 C25.6200724,32.6976744 31.8025788,26.3411591 31.8025788,18.5 C31.8025788,17.4479344 31.6913877,16.4111619 31.473054,15.402238 C31.4386902,15.2434426 31.4640707,15.0780647 31.542543,14.9387269 L31.5794052,14.8807001 L33.7479591,11.8372082 C34.0427131,11.423531 34.6663562,11.5115034 34.8418521,11.9915151 C35.5960407,14.0543515 35.9871286,16.2499864 35.9871286,18.5 C35.9871286,28.7172679 27.9311355,37 17.9935643,37 C8.05599315,37 0,28.7172679 0,18.5 C0,8.28273213 8.05599315,0 17.9935643,0 Z M38.9869944,1.85067495 C39.5842509,1.38845235 40.3100054,2.18844533 39.8596118,2.76363353 L39.8245383,2.8052977 L16.545078,28.5930878 C16.2952185,28.8698693 15.8733113,28.8653734 15.6280324,28.5965821 L15.5866524,28.5464082 L5.98768728,15.6574019 C5.57729875,15.1063528 6.18645721,14.3688028 6.78184309,14.6958629 C11.3075717,17.1819562 14.9000656,17.8701142 17.5605645,16.8263537 C20.342172,15.7350803 27.5221641,10.7234187 38.9869944,1.85067495 Z" id="Combined-Shape"></path>
                    </g>
                </g>
            </g>
        </g>
    </g>
</svg>